<?xml version="1.0" encoding="utf-8"?>
<!-- Generator: Adobe Illustrator 19.2.0, SVG Export Plug-In . SVG Version: 6.00 Build 0)  -->
<svg version="1.1" id="Layer_1" xmlns="http://www.w3.org/2000/svg" xmlns:xlink="http://www.w3.org/1999/xlink" x="0px" y="0px"
	 viewBox="0 0 424.5 271.6" style="enable-background:new 0 0 424.5 271.6;" xml:space="preserve">
<style type="text/css">
	.st0{fill:none;stroke:#999999;stroke-width:14;stroke-miterlimit:10;}
	.st1{fill:none;stroke:#000000;stroke-width:14;stroke-miterlimit:10;}
	.st2{fill:#FFFFFF;stroke:#000000;stroke-width:2;stroke-miterlimit:10;}
	.st3{fill:#FFFFFF;stroke:#000000;stroke-width:2;stroke-miterlimit:10;}
  .open {
  stroke: #ff0000;
  }
  .closed {
  stroke: #000000;
  }
  .unknown {
  stroke: orange;
  }
</style>
<polygon class="st0" points="288.3,21 151.6,21 30.4,21 30.4,103.2 30.4,247 145.4,247 145.4,110 281.4,110 281.4,187 396.4,187 
	396.4,103.2 396.4,21 "/>
<line id="loc-19" class="st1" x1="218.4" y1="110" x2="248.4" y2="110"/>
<line id="loc-2" class="st1" x1="156.4" y1="110" x2="178.4" y2="110"/>
<line id="loc-1" class="st1" x1="178.4" y1="110" x2="200.4" y2="110"/>
<line id="loc-22" class="st1" x1="67.4" y1="247" x2="97.4" y2="247"/>
<line id="loc-12" class="st1" x1="260.4" y1="21" x2="290.4" y2="21"/>
<line id="loc-20" class="st1" x1="145.4" y1="193" x2="145.4" y2="223"/>
<line id="loc-18" class="st1" x1="281.4" y1="119" x2="281.4" y2="149"/>
<line id="loc-21" class="st1" x1="30.4" y1="193" x2="30.4" y2="223"/>
<rect id="loc-5" x="24.4" y="77.7" class="st2" width="11.9" height="25.3"/>
<rect id="loc-6" x="24.4" y="105" class="st2" width="11.9" height="25.3"/>
<rect id="loc-4" x="139.4" y="131" class="st2" width="11.9" height="25.3"/>
<rect id="loc-3" x="139.4" y="158.3" class="st2" width="11.9" height="25.3"/>
<rect id="loc-7" x="42.7" y="15" class="st3" width="18" height="12"/>
<rect id="loc-17" x="272.4" y="162" transform="matrix(4.490612e-011 1 -1 4.490612e-011 449.3901 -113.3901)" class="st3" width="18" height="12"/>
<rect id="loc-8" x="78.3" y="15" class="st3" width="26.1" height="12"/>
<rect id="loc-11" x="218.4" y="15" class="st3" width="26.1" height="12"/>
<rect id="loc-13" x="306.7" y="15" class="st3" width="26.1" height="12"/>
<rect id="loc-16" x="343.8" y="181" class="st3" width="26.1" height="12"/>
<rect id="loc-15" x="383.3" y="91.7" transform="matrix(4.488480e-011 1 -1 4.488480e-011 494.0537 -298.7266)" class="st3" width="26.1" height="12"/>
<rect id="loc-14" x="353.7" y="15" class="st3" width="26.1" height="12"/>
<rect id="loc-10" x="153.4" y="15" class="st2" width="25.3" height="11.9"/>
<rect id="loc-9" x="126" y="15" class="st2" width="25.3" height="11.9"/>
</svg>
