<?xml version="1.0" encoding="utf-8"?>
<!-- Generator: Adobe Illustrator 19.2.0, SVG Export Plug-In . SVG Version: 6.00 Build 0)  -->
<svg version="1.1" id="Layer_1" xmlns="http://www.w3.org/2000/svg" xmlns:xlink="http://www.w3.org/1999/xlink" x="0px" y="0px"
	 viewBox="0 0 1366 768" style="enable-background:new 0 0 1366 768;" xml:space="preserve">
<style type="text/css">
	.st0{fill:none;stroke:#999999;stroke-width:14;stroke-miterlimit:10;}
	.st1{fill:none;stroke:#000000;stroke-miterlimit:10;}
	.st2{fill:none;stroke:#000000;stroke-width:14;stroke-miterlimit:10;}
	.st3{fill:#FFFFFF;}
	.st4{fill:#FFFFFF;stroke:#000000;stroke-width:2;stroke-miterlimit:10;}
</style>
<polygon class="st0" points="582.9,405 446.2,405 325,405 325,487.2 325,631 440,631 440,494 576,494 576,571 691,571 691,487.2
	691,405 "/>
<line class="st2" x1="513" y1="494" x2="543" y2="494"/>
<line class="st2" x1="451" y1="494" x2="473" y2="494"/>
<line class="st2" x1="473" y1="494" x2="495" y2="494"/>
<line class="st2" x1="362" y1="631" x2="392" y2="631"/>
<line class="st2" x1="555" y1="405" x2="585" y2="405"/>
<line class="st2" x1="440" y1="577" x2="440" y2="607"/>
<line class="st2" x1="576" y1="503" x2="576" y2="533"/>
<line class="st2" x1="325" y1="577" x2="325" y2="607"/>
<g>
	<g>
		<rect x="319" y="461.7" class="st3" width="11.9" height="25.3"/>
		<path d="M330,462.7V486H320v-23.3H330 M332,460.7H318V488H332V460.7L332,460.7z"/>
	</g>
	<g>
		<rect x="319" y="489" class="st3" width="11.9" height="25.3"/>
		<path d="M330,490v23.3H320V490H330 M332,488H318v27.3H332V488L332,488z"/>
	</g>
</g>
<g>
	<g>
		<rect x="434" y="515" class="st3" width="11.9" height="25.3"/>
		<path d="M445,516v23.3H435V516H445 M447,514H433v27.3H447V514L447,514z"/>
	</g>
	<g>
		<rect x="434" y="542.3" class="st3" width="11.9" height="25.3"/>
		<path d="M445,543.3v23.3H435v-23.3H445 M447,541.3H433v27.3H447V541.3L447,541.3z"/>
	</g>
</g>
<rect x="337.3" y="399" class="st4" width="18" height="12"/>
<rect x="567" y="546" transform="matrix(4.490612e-011 1 -1 4.490612e-011 1128 -24)" class="st4" width="18" height="12"/>
<rect x="372.9" y="399" class="st4" width="26.1" height="12"/>
<rect x="513" y="399" class="st4" width="26.1" height="12"/>
<rect x="601.3" y="399" class="st4" width="26.1" height="12"/>
<rect x="638.4" y="565" class="st4" width="26.1" height="12"/>
<rect x="678" y="475.7" transform="matrix(4.488480e-011 1 -1 4.488480e-011 1172.6636 -209.3365)" class="st4" width="26.1" height="12"/>
<rect x="648.3" y="399" class="st4" width="26.1" height="12"/>
<g>
	<g>
		<rect x="448" y="399" class="st3" width="25.3" height="11.9"/>
		<path d="M472.3,400v9.9H449V400H472.3 M474.3,398H447V412h27.3V398L474.3,398z"/>
	</g>
	<g>
		<rect x="420.6" y="399" class="st3" width="25.3" height="11.9"/>
		<path d="M445,400v9.9h-23.3V400H445 M447,398h-27.3V412H447V398L447,398z"/>
	</g>
</g>
</svg>
